<?xml version="1.0" encoding="UTF-8"?> <!-- Generator: Adobe Illustrator 24.2.0, SVG Export Plug-In . SVG Version: 6.00 Build 0) --> <svg xmlns="http://www.w3.org/2000/svg" xmlns:xlink="http://www.w3.org/1999/xlink" version="1.1" id="Capa_1" x="0px" y="0px" viewBox="0 0 512 512" style="enable-background:new 0 0 512 512;" xml:space="preserve"> <style type="text/css"> .st0{fill:#3C8393;} </style> <g> <g> <path class="st0" d="M117.1,44c-16.5,0-30,13.5-30,30v308c-12.5,9.4-20,24.2-20,40c0,27.6,22.4,50,50,50s50-22.4,50-50 c0-15.8-7.5-30.6-20-40V74C147.1,57.5,133.7,44,117.1,44z M117.1,64c5.5,0,10,4.5,10,10v52.7h-20V74C107.1,68.5,111.6,64,117.1,64 z M117.1,452c-16.5,0-30-13.5-30-30c0-10.7,5.8-20.6,15-26c3.1-1.8,5-5.1,5-8.7V146.7h20v240.6c0,3.6,1.9,6.9,5,8.7 c9.3,5.4,15,15.3,15,26C147.1,438.5,133.7,452,117.1,452z"></path> <path class="st0" d="M187.1,263.3c0-5.5-4.5-10-10-10s-10,4.5-10,10v105.5c0,2.4,0.9,4.8,2.5,6.6c11.4,12.8,17.6,29.3,17.6,46.5 c0,38.7-31.5,70.1-70.1,70.1c-18.7,0-36.2-7.3-49.5-20.6C54.3,458.1,47,440.5,47,421.9c0-17.1,6.3-33.6,17.6-46.5 c1.6-1.8,2.5-4.2,2.5-6.6V70c0-27.6,22.4-50,50-50s50,22.4,50,50v103.3c0,5.5,4.5,10,10,10s10-4.5,10-10V70c0-38.6-31.4-70-70-70 s-70,31.4-70,70v295.1c-13,16-20.1,36-20.1,56.7c0,24,9.4,46.6,26.5,63.7c17.1,17.1,39.7,26.5,63.7,26.5 c49.7,0,90.1-40.4,90.1-90.1c0-20.7-7.1-40.7-20.1-56.7L187.1,263.3z"></path> <path class="st0" d="M376,52.2c-31.3,0-56.8,25.5-56.8,56.8s25.5,56.8,56.8,56.8s56.8-25.5,56.8-56.8S407.3,52.2,376,52.2z M376,145.8c-20.3,0-36.8-16.5-36.8-36.8s16.5-36.8,36.8-36.8s36.8,16.5,36.8,36.8S396.3,145.8,376,145.8z"></path> <path class="st0" d="M473.8,109c0-7.4,2.9-14.2,8.2-19.4c2.6-2.5,3.6-6.3,2.7-9.8s-3.7-6.2-7.2-7.1c-7.1-1.8-13.1-6.3-16.8-12.7 c-3.7-6.4-4.6-13.8-2.6-20.9c1-3.5,0-7.2-2.6-9.8c-2.6-2.6-6.3-3.5-9.8-2.6c-7.1,2-14.5,1.1-20.9-2.6S414,14.7,412.2,7.5 c-0.9-3.5-3.6-6.3-7.1-7.2c-3.5-0.9-7.2,0.1-9.8,2.7c-5.1,5.3-12,8.2-19.4,8.2c-7.4,0-14.2-2.9-19.4-8.2c-2.5-2.6-6.3-3.6-9.8-2.7 c-3.5,0.9-6.2,3.7-7.1,7.2c-1.8,7.1-6.3,13.1-12.7,16.8s-13.8,4.6-20.9,2.6c-3.5-1-7.2,0-9.8,2.6c-2.6,2.6-3.5,6.3-2.6,9.8 c2,7.1,1.1,14.5-2.6,20.9c-3.7,6.4-9.6,10.9-16.8,12.7c-3.5,0.9-6.3,3.6-7.2,7.1s0.1,7.2,2.7,9.8c5.3,5.1,8.2,12,8.2,19.4 s-2.9,14.2-8.2,19.4c-2.6,2.5-3.6,6.3-2.7,9.8s3.7,6.2,7.2,7.1c7.1,1.8,13.1,6.3,16.8,12.7c3.7,6.4,4.6,13.8,2.6,20.9 c-1,3.5,0,7.2,2.6,9.8c2.6,2.6,6.3,3.5,9.8,2.6c7.1-2,14.5-1.1,20.9,2.6c6.4,3.7,10.9,9.6,12.7,16.8c0.9,3.5,3.6,6.3,7.1,7.2 c0.9,0.2,1.7,0.3,2.6,0.3c2.7,0,5.3-1.1,7.2-3c5.1-5.3,12-8.2,19.4-8.2s14.2,2.9,19.4,8.2c2.5,2.6,6.3,3.6,9.8,2.7 c3.5-0.9,6.2-3.7,7.1-7.2c1.8-7.1,6.3-13.1,12.7-16.8s13.8-4.6,20.9-2.6c3.5,1,7.2,0,9.8-2.6c2.6-2.6,3.5-6.3,2.6-9.8 c-2-7.1-1.1-14.5,2.6-20.9c3.7-6.4,9.6-10.9,16.8-12.7c3.5-0.9,6.3-3.6,7.2-7.1s-0.1-7.2-2.7-9.8 C476.7,123.2,473.8,116.4,473.8,109z M459.4,131.4c-6.6,4-12.1,9.7-16,16.5s-6.1,14.5-6.3,22.2c-7.7,0.2-15.3,2.3-22.2,6.3 c-6.9,4-12.5,9.5-16.5,16c-6.8-3.7-14.4-5.6-22.4-5.6c-7.9,0-15.6,1.9-22.4,5.6c-4-6.6-9.7-12.1-16.5-16c-6.9-4-14.5-6.1-22.2-6.3 c-0.2-7.7-2.3-15.3-6.3-22.2c-4-6.9-9.5-12.5-16-16.5c3.7-6.8,5.6-14.4,5.6-22.4s-1.9-15.6-5.6-22.4c6.6-4,12.1-9.7,16-16.5 s6.1-14.5,6.3-22.2c7.7-0.2,15.3-2.3,22.2-6.3c6.9-4,12.5-9.5,16.5-16c6.8,3.7,14.4,5.6,22.4,5.6h0c7.9,0,15.6-1.9,22.4-5.6 c4,6.6,9.7,12.1,16.5,16c6.9,4,14.5,6.1,22.2,6.3c0.2,7.7,2.3,15.3,6.3,22.2c4,6.9,9.5,12.5,16,16.5c-3.7,6.8-5.6,14.4-5.6,22.4 S455.8,124.6,459.4,131.4L459.4,131.4z"></path> <circle class="st0" cx="177.1" cy="218.3" r="10"></circle> </g> </g> </svg> 